<?xml version="1.0" encoding="UTF-8" standalone="no"?>
<!DOCTYPE svg PUBLIC "-//W3C//DTD SVG 1.1//EN" "http://www.w3.org/Graphics/SVG/1.1/DTD/svg11.dtd">
<svg xmlns="http://www.w3.org/2000/svg" version="1.1" viewBox="0.00 0.00 1200.00 1200.00">
<g stroke-width="2.00" fill="none" stroke-linecap="butt">
<path stroke="#c36885" vector-effect="non-scaling-stroke" d="
  M 938.75 683.63
  L 423.82 619.94
  A 1.10 1.09 -76.9 0 0 422.65 620.68
  L 416.75 638.12"
/>
<path stroke="#c486f1" vector-effect="non-scaling-stroke" d="
  M 308.69 541.41
  C 322.32 533.47 332.91 524.41 341.68 511.17
  C 354.99 491.06 360.11 465.57 361.52 441.26
  C 363.07 414.51 355.94 386.27 339.16 365.10
  C 321.75 343.16 294.44 332.56 266.74 332.96
  C 222.89 333.60 192.66 366.11 181.49 406.01
  C 172.24 439.04 171.77 477.82 188.82 508.41
  Q 209.05 544.68 251.28 551.33
  Q 257.50 552.31 263.34 552.74
  A 3.26 3.21 -18.6 0 1 265.49 553.79
  L 302.28 594.75
  A 0.96 0.96 0.0 0 0 303.49 594.93
  L 336.06 574.83
  Q 336.75 574.40 336.21 573.79
  L 308.52 542.49
  A 0.71 0.70 54.2 0 1 308.69 541.41"
/>
<path stroke="#c486f1" vector-effect="non-scaling-stroke" d="
  M 619.5713 408.2672
  A 28.24 23.90 29.2 0 0 606.5798 373.6272
  A 28.24 23.90 29.2 0 0 570.2687 380.7128
  A 28.24 23.90 29.2 0 0 583.2602 415.3528
  A 28.24 23.90 29.2 0 0 619.5713 408.2672"
/>
<path stroke="#c486f1" vector-effect="non-scaling-stroke" d="
  M 464.52 562.28
  L 461.71 577.31
  Q 461.61 577.83 462.14 577.91
  L 506.51 584.04
  Q 507.18 584.13 507.30 583.47
  L 535.03 427.75
  Q 535.10 427.41 534.75 427.36
  L 486.08 420.61
  A 0.29 0.28 -80.7 0 0 485.76 420.85
  Q 475.89 475.39 465.86 529.72
  Q 465.61 531.06 464.41 532.14
  Q 453.02 542.37 438.01 538.74
  C 430.21 536.85 426.54 532.38 425.51 524.79
  Q 424.92 520.42 425.22 518.73
  Q 434.11 467.47 443.07 415.36
  A 0.69 0.68 8.5 0 0 442.48 414.57
  L 394.75 407.98
  A 0.45 0.45 0.0 0 0 394.26 408.28
  Q 393.71 410.01 393.37 411.99
  Q 385.91 455.94 378.47 499.89
  Q 376.21 513.29 376.27 519.73
  C 376.52 546.94 390.84 569.33 418.51 574.95
  C 432.10 577.71 445.64 575.94 457.21 567.69
  Q 458.95 566.46 464.04 562.00
  Q 464.68 561.45 464.52 562.28"
/>
<path stroke="#c486f1" vector-effect="non-scaling-stroke" d="
  M 860.89 417.70
  A 0.52 0.52 0.0 0 0 860.45 417.07
  L 809.39 409.97
  A 0.52 0.52 0.0 0 0 808.80 410.42
  L 789.46 554.43
  A 0.52 0.52 0.0 0 0 789.90 555.01
  L 828.76 560.35
  A 0.52 0.52 0.0 0 0 829.33 559.95
  L 860.89 417.70"
/>
<path stroke="#c486f1" vector-effect="non-scaling-stroke" d="
  M 535.73 587.74
  A 0.31 0.31 0.0 0 0 535.99 588.10
  L 584.57 594.87
  A 0.31 0.31 0.0 0 0 584.92 594.62
  L 612.68 438.52
  A 0.31 0.31 0.0 0 0 612.42 438.16
  L 563.90 431.39
  A 0.31 0.31 0.0 0 0 563.55 431.64
  L 535.73 587.74"
/>
<path stroke="#c486f1" vector-effect="non-scaling-stroke" d="
  M 635.60 479.75
  A 0.34 0.34 0.0 0 0 635.89 480.15
  L 700.14 489.31
  A 0.34 0.34 0.0 0 1 700.33 489.89
  L 616.71 569.06
  A 0.34 0.34 0.0 0 0 616.61 569.25
  L 611.47 598.22
  A 0.34 0.34 0.0 0 0 611.76 598.62
  L 743.87 616.93
  A 0.34 0.34 0.0 0 0 744.25 616.66
  L 750.81 579.45
  A 0.34 0.34 0.0 0 0 750.52 579.05
  L 681.50 569.23
  A 0.34 0.34 0.0 0 1 681.31 568.65
  L 765.29 488.81
  A 0.34 0.34 0.0 0 0 765.39 488.62
  L 770.35 460.35
  A 0.34 0.34 0.0 0 0 770.06 459.95
  L 642.58 442.31
  A 0.34 0.34 0.0 0 0 642.20 442.59
  L 635.60 479.75"
/>
<path stroke="#c486f1" vector-effect="non-scaling-stroke" d="
  M 824.3460 618.3007
  A 28.36 24.39 34.2 0 0 814.5992 582.1875
  A 28.36 24.39 34.2 0 0 777.4340 586.4193
  A 28.36 24.39 34.2 0 0 787.1808 622.5325
  A 28.36 24.39 34.2 0 0 824.3460 618.3007"
/>
<path stroke="#c486f1" vector-effect="non-scaling-stroke" d="
  M 297.12 488.57
  Q 303.22 476.25 305.99 462.79
  Q 310.78 439.51 309.99 415.77
  C 309.20 392.38 297.81 372.56 271.25 374.12
  C 244.51 375.70 233.18 406.21 229.81 429.02
  C 226.04 454.47 218.47 501.00 251.82 510.74
  C 271.88 516.60 288.39 506.18 297.12 488.57"
/>
<path stroke="#b37130" vector-effect="non-scaling-stroke" d="
  M 530.60 704.98
  A 0.42 0.42 0.0 0 1 530.92 705.59
  L 463.34 831.15
  A 0.42 0.42 0.0 0 0 463.66 831.77
  L 503.27 836.64
  A 0.42 0.42 0.0 0 0 503.70 836.43
  L 571.46 710.32
  A 0.42 0.42 0.0 0 1 571.89 710.11
  L 621.04 716.19
  A 0.42 0.42 0.0 0 0 621.47 715.98
  L 636.63 687.53
  A 0.42 0.42 0.0 0 0 636.31 686.91
  L 498.51 669.83
  A 0.42 0.42 0.0 0 0 498.09 670.04
  L 482.63 698.55
  A 0.42 0.42 0.0 0 0 482.95 699.16
  L 530.60 704.98"
/>
<path stroke="#b37130" vector-effect="non-scaling-stroke" d="
  M 697.19 694.88
  A 0.30 0.30 0.0 0 0 696.97 694.44
  L 657.30 689.49
  A 0.30 0.30 0.0 0 0 657.00 689.64
  L 573.44 844.92
  A 0.30 0.30 0.0 0 0 573.66 845.36
  L 613.39 850.31
  A 0.30 0.30 0.0 0 0 613.69 850.16
  L 697.19 694.88"
/>
<path stroke="#b37130" vector-effect="non-scaling-stroke" d="
  M 841.14 765.48
  Q 841.12 765.63 841.04 765.76
  Q 823.25 795.38 805.51 825.03
  C 796.66 839.82 788.81 855.20 780.65 870.40
  A 0.51 0.51 0.0 0 0 781.03 871.15
  L 820.53 875.98
  A 0.65 0.63 -71.8 0 0 821.16 875.65
  L 904.43 720.72
  A 0.40 0.40 0.0 0 0 904.13 720.13
  L 852.32 713.67
  A 2.61 2.59 24.6 0 0 850.09 714.49
  L 757.75 815.33
  Q 756.65 816.53 756.96 814.93
  L 777.74 705.02
  A 0.56 0.56 0.0 0 0 777.26 704.36
  L 726.68 698.10
  Q 725.61 697.97 725.10 698.92
  L 642.35 852.80
  Q 641.80 853.82 642.95 853.96
  L 681.05 858.69
  Q 682.23 858.84 682.80 857.78
  C 690.48 843.55 698.42 829.41 705.47 814.84
  Q 721.60 781.51 737.64 748.17
  A 0.24 0.24 0.0 0 1 738.09 748.32
  L 718.82 862.77
  Q 718.71 863.37 719.29 863.44
  L 744.93 866.58
  A 1.31 1.30 24.8 0 0 746.04 866.18
  L 840.82 765.33
  A 0.19 0.18 -19.7 0 1 841.14 765.48"
/>
<path stroke="#b37130" vector-effect="non-scaling-stroke" d="
  M 938.30 790.23
  A 0.34 0.34 0.0 0 1 938.05 789.73
  L 955.26 757.83
  A 0.34 0.34 0.0 0 1 955.60 757.66
  L 1029.40 766.78
  A 0.34 0.34 0.0 0 0 1029.74 766.60
  L 1045.08 738.05
  A 0.34 0.34 0.0 0 0 1044.82 737.55
  L 930.81 723.40
  A 0.34 0.34 0.0 0 0 930.47 723.58
  L 847.05 878.81
  A 0.34 0.34 0.0 0 0 847.31 879.31
  L 961.09 893.40
  A 0.34 0.34 0.0 0 0 961.43 893.23
  L 976.75 864.76
  A 0.34 0.34 0.0 0 0 976.50 864.26
  L 903.37 855.16
  A 0.34 0.34 0.0 0 1 903.12 854.66
  L 922.73 818.44
  A 0.34 0.34 0.0 0 1 923.07 818.27
  L 985.21 825.97
  A 0.34 0.34 0.0 0 0 985.55 825.80
  L 1000.33 798.36
  A 0.34 0.34 0.0 0 0 1000.08 797.86
  L 938.30 790.23"
/>
</g>
<path fill="#890de2" d="
  M 938.75 683.63
  L 423.82 619.94
  A 1.10 1.09 -76.9 0 0 422.65 620.68
  L 416.75 638.12
  L 342.24 627.78
  A 0.31 0.31 0.0 0 0 341.88 628.05
  L 319.42 772.77
  Q 319.28 773.65 318.80 772.90
  L 213.77 610.49
  A 1.47 1.44 -12.2 0 0 212.74 609.84
  L 102.50 594.57
  A 0.58 0.57 4.0 0 1 102.00 594.00
  L 102.00 256.70
  A 0.49 0.49 0.0 0 1 102.56 256.22
  L 938.27 371.98
  A 0.56 0.56 0.0 0 1 938.75 372.53
  L 938.75 683.63
  Z
  M 308.69 541.41
  C 322.32 533.47 332.91 524.41 341.68 511.17
  C 354.99 491.06 360.11 465.57 361.52 441.26
  C 363.07 414.51 355.94 386.27 339.16 365.10
  C 321.75 343.16 294.44 332.56 266.74 332.96
  C 222.89 333.60 192.66 366.11 181.49 406.01
  C 172.24 439.04 171.77 477.82 188.82 508.41
  Q 209.05 544.68 251.28 551.33
  Q 257.50 552.31 263.34 552.74
  A 3.26 3.21 -18.6 0 1 265.49 553.79
  L 302.28 594.75
  A 0.96 0.96 0.0 0 0 303.49 594.93
  L 336.06 574.83
  Q 336.75 574.40 336.21 573.79
  L 308.52 542.49
  A 0.71 0.70 54.2 0 1 308.69 541.41
  Z
  M 619.5713 408.2672
  A 28.24 23.90 29.2 0 0 606.5798 373.6272
  A 28.24 23.90 29.2 0 0 570.2687 380.7128
  A 28.24 23.90 29.2 0 0 583.2602 415.3528
  A 28.24 23.90 29.2 0 0 619.5713 408.2672
  Z
  M 464.52 562.28
  L 461.71 577.31
  Q 461.61 577.83 462.14 577.91
  L 506.51 584.04
  Q 507.18 584.13 507.30 583.47
  L 535.03 427.75
  Q 535.10 427.41 534.75 427.36
  L 486.08 420.61
  A 0.29 0.28 -80.7 0 0 485.76 420.85
  Q 475.89 475.39 465.86 529.72
  Q 465.61 531.06 464.41 532.14
  Q 453.02 542.37 438.01 538.74
  C 430.21 536.85 426.54 532.38 425.51 524.79
  Q 424.92 520.42 425.22 518.73
  Q 434.11 467.47 443.07 415.36
  A 0.69 0.68 8.5 0 0 442.48 414.57
  L 394.75 407.98
  A 0.45 0.45 0.0 0 0 394.26 408.28
  Q 393.71 410.01 393.37 411.99
  Q 385.91 455.94 378.47 499.89
  Q 376.21 513.29 376.27 519.73
  C 376.52 546.94 390.84 569.33 418.51 574.95
  C 432.10 577.71 445.64 575.94 457.21 567.69
  Q 458.95 566.46 464.04 562.00
  Q 464.68 561.45 464.52 562.28
  Z
  M 860.89 417.70
  A 0.52 0.52 0.0 0 0 860.45 417.07
  L 809.39 409.97
  A 0.52 0.52 0.0 0 0 808.80 410.42
  L 789.46 554.43
  A 0.52 0.52 0.0 0 0 789.90 555.01
  L 828.76 560.35
  A 0.52 0.52 0.0 0 0 829.33 559.95
  L 860.89 417.70
  Z
  M 535.73 587.74
  A 0.31 0.31 0.0 0 0 535.99 588.10
  L 584.57 594.87
  A 0.31 0.31 0.0 0 0 584.92 594.62
  L 612.68 438.52
  A 0.31 0.31 0.0 0 0 612.42 438.16
  L 563.90 431.39
  A 0.31 0.31 0.0 0 0 563.55 431.64
  L 535.73 587.74
  Z
  M 635.60 479.75
  A 0.34 0.34 0.0 0 0 635.89 480.15
  L 700.14 489.31
  A 0.34 0.34 0.0 0 1 700.33 489.89
  L 616.71 569.06
  A 0.34 0.34 0.0 0 0 616.61 569.25
  L 611.47 598.22
  A 0.34 0.34 0.0 0 0 611.76 598.62
  L 743.87 616.93
  A 0.34 0.34 0.0 0 0 744.25 616.66
  L 750.81 579.45
  A 0.34 0.34 0.0 0 0 750.52 579.05
  L 681.50 569.23
  A 0.34 0.34 0.0 0 1 681.31 568.65
  L 765.29 488.81
  A 0.34 0.34 0.0 0 0 765.39 488.62
  L 770.35 460.35
  A 0.34 0.34 0.0 0 0 770.06 459.95
  L 642.58 442.31
  A 0.34 0.34 0.0 0 0 642.20 442.59
  L 635.60 479.75
  Z
  M 824.3460 618.3007
  A 28.36 24.39 34.2 0 0 814.5992 582.1875
  A 28.36 24.39 34.2 0 0 777.4340 586.4193
  A 28.36 24.39 34.2 0 0 787.1808 622.5325
  A 28.36 24.39 34.2 0 0 824.3460 618.3007
  Z"
/>
<path fill="#ffffff" d="
  M 308.69 541.41
  A 0.71 0.70 54.2 0 0 308.52 542.49
  L 336.21 573.79
  Q 336.75 574.40 336.06 574.83
  L 303.49 594.93
  A 0.96 0.96 0.0 0 1 302.28 594.75
  L 265.49 553.79
  A 3.26 3.21 -18.6 0 0 263.34 552.74
  Q 257.50 552.31 251.28 551.33
  Q 209.05 544.68 188.82 508.41
  C 171.77 477.82 172.24 439.04 181.49 406.01
  C 192.66 366.11 222.89 333.60 266.74 332.96
  C 294.44 332.56 321.75 343.16 339.16 365.10
  C 355.94 386.27 363.07 414.51 361.52 441.26
  C 360.11 465.57 354.99 491.06 341.68 511.17
  C 332.91 524.41 322.32 533.47 308.69 541.41
  Z
  M 297.12 488.57
  Q 303.22 476.25 305.99 462.79
  Q 310.78 439.51 309.99 415.77
  C 309.20 392.38 297.81 372.56 271.25 374.12
  C 244.51 375.70 233.18 406.21 229.81 429.02
  C 226.04 454.47 218.47 501.00 251.82 510.74
  C 271.88 516.60 288.39 506.18 297.12 488.57
  Z"
/>
<ellipse fill="#ffffff" cx="0.00" cy="0.00" transform="translate(594.92,394.49) rotate(29.2)" rx="28.24" ry="23.90"/>
<path fill="#890de2" d="
  M 297.12 488.57
  C 288.39 506.18 271.88 516.60 251.82 510.74
  C 218.47 501.00 226.04 454.47 229.81 429.02
  C 233.18 406.21 244.51 375.70 271.25 374.12
  C 297.81 372.56 309.20 392.38 309.99 415.77
  Q 310.78 439.51 305.99 462.79
  Q 303.22 476.25 297.12 488.57
  Z"
/>
<path fill="#ffffff" d="
  M 464.04 562.00
  Q 458.95 566.46 457.21 567.69
  C 445.64 575.94 432.10 577.71 418.51 574.95
  C 390.84 569.33 376.52 546.94 376.27 519.73
  Q 376.21 513.29 378.47 499.89
  Q 385.91 455.94 393.37 411.99
  Q 393.71 410.01 394.26 408.28
  A 0.45 0.45 0.0 0 1 394.75 407.98
  L 442.48 414.57
  A 0.69 0.68 8.5 0 1 443.07 415.36
  Q 434.11 467.47 425.22 518.73
  Q 424.92 520.42 425.51 524.79
  C 426.54 532.38 430.21 536.85 438.01 538.74
  Q 453.02 542.37 464.41 532.14
  Q 465.61 531.06 465.86 529.72
  Q 475.89 475.39 485.76 420.85
  A 0.29 0.28 -80.7 0 1 486.08 420.61
  L 534.75 427.36
  Q 535.10 427.41 535.03 427.75
  L 507.30 583.47
  Q 507.18 584.13 506.51 584.04
  L 462.14 577.91
  Q 461.61 577.83 461.71 577.31
  L 464.52 562.28
  Q 464.68 561.45 464.04 562.00
  Z"
/>
<path fill="#ffffff" d="
  M 860.89 417.70
  L 829.33 559.95
  A 0.52 0.52 0.0 0 1 828.76 560.35
  L 789.90 555.01
  A 0.52 0.52 0.0 0 1 789.46 554.43
  L 808.80 410.42
  A 0.52 0.52 0.0 0 1 809.39 409.97
  L 860.45 417.07
  A 0.52 0.52 0.0 0 1 860.89 417.70
  Z"
/>
<path fill="#ffffff" d="
  M 535.73 587.74
  L 563.55 431.64
  A 0.31 0.31 0.0 0 1 563.90 431.39
  L 612.42 438.16
  A 0.31 0.31 0.0 0 1 612.68 438.52
  L 584.92 594.62
  A 0.31 0.31 0.0 0 1 584.57 594.87
  L 535.99 588.10
  A 0.31 0.31 0.0 0 1 535.73 587.74
  Z"
/>
<path fill="#ffffff" d="
  M 635.60 479.75
  L 642.20 442.59
  A 0.34 0.34 0.0 0 1 642.58 442.31
  L 770.06 459.95
  A 0.34 0.34 0.0 0 1 770.35 460.35
  L 765.39 488.62
  A 0.34 0.34 0.0 0 1 765.29 488.81
  L 681.31 568.65
  A 0.34 0.34 0.0 0 0 681.50 569.23
  L 750.52 579.05
  A 0.34 0.34 0.0 0 1 750.81 579.45
  L 744.25 616.66
  A 0.34 0.34 0.0 0 1 743.87 616.93
  L 611.76 598.62
  A 0.34 0.34 0.0 0 1 611.47 598.22
  L 616.61 569.25
  A 0.34 0.34 0.0 0 1 616.71 569.06
  L 700.33 489.89
  A 0.34 0.34 0.0 0 0 700.14 489.31
  L 635.89 480.15
  A 0.34 0.34 0.0 0 1 635.60 479.75
  Z"
/>
<ellipse fill="#ffffff" cx="0.00" cy="0.00" transform="translate(800.89,602.36) rotate(34.2)" rx="28.36" ry="24.39"/>
<path fill="#fcc327" d="
  M 938.75 683.63
  L 1097.38 703.32
  Q 1098.01 703.40 1097.80 703.99
  L 1016.42 943.41
  A 0.56 0.55 12.5 0 1 1015.82 943.79
  L 341.76 860.25
  Q 341.28 860.19 341.44 859.73
  L 416.75 638.12
  L 422.65 620.68
  A 1.10 1.09 -76.9 0 1 423.82 619.94
  L 938.75 683.63
  Z
  M 530.60 704.98
  A 0.42 0.42 0.0 0 1 530.92 705.59
  L 463.34 831.15
  A 0.42 0.42 0.0 0 0 463.66 831.77
  L 503.27 836.64
  A 0.42 0.42 0.0 0 0 503.70 836.43
  L 571.46 710.32
  A 0.42 0.42 0.0 0 1 571.89 710.11
  L 621.04 716.19
  A 0.42 0.42 0.0 0 0 621.47 715.98
  L 636.63 687.53
  A 0.42 0.42 0.0 0 0 636.31 686.91
  L 498.51 669.83
  A 0.42 0.42 0.0 0 0 498.09 670.04
  L 482.63 698.55
  A 0.42 0.42 0.0 0 0 482.95 699.16
  L 530.60 704.98
  Z
  M 697.19 694.88
  A 0.30 0.30 0.0 0 0 696.97 694.44
  L 657.30 689.49
  A 0.30 0.30 0.0 0 0 657.00 689.64
  L 573.44 844.92
  A 0.30 0.30 0.0 0 0 573.66 845.36
  L 613.39 850.31
  A 0.30 0.30 0.0 0 0 613.69 850.16
  L 697.19 694.88
  Z
  M 841.14 765.48
  Q 841.12 765.63 841.04 765.76
  Q 823.25 795.38 805.51 825.03
  C 796.66 839.82 788.81 855.20 780.65 870.40
  A 0.51 0.51 0.0 0 0 781.03 871.15
  L 820.53 875.98
  A 0.65 0.63 -71.8 0 0 821.16 875.65
  L 904.43 720.72
  A 0.40 0.40 0.0 0 0 904.13 720.13
  L 852.32 713.67
  A 2.61 2.59 24.6 0 0 850.09 714.49
  L 757.75 815.33
  Q 756.65 816.53 756.96 814.93
  L 777.74 705.02
  A 0.56 0.56 0.0 0 0 777.26 704.36
  L 726.68 698.10
  Q 725.61 697.97 725.10 698.92
  L 642.35 852.80
  Q 641.80 853.82 642.95 853.96
  L 681.05 858.69
  Q 682.23 858.84 682.80 857.78
  C 690.48 843.55 698.42 829.41 705.47 814.84
  Q 721.60 781.51 737.64 748.17
  A 0.24 0.24 0.0 0 1 738.09 748.32
  L 718.82 862.77
  Q 718.71 863.37 719.29 863.44
  L 744.93 866.58
  A 1.31 1.30 24.8 0 0 746.04 866.18
  L 840.82 765.33
  A 0.19 0.18 -19.7 0 1 841.14 765.48
  Z
  M 938.30 790.23
  A 0.34 0.34 0.0 0 1 938.05 789.73
  L 955.26 757.83
  A 0.34 0.34 0.0 0 1 955.60 757.66
  L 1029.40 766.78
  A 0.34 0.34 0.0 0 0 1029.74 766.60
  L 1045.08 738.05
  A 0.34 0.34 0.0 0 0 1044.82 737.55
  L 930.81 723.40
  A 0.34 0.34 0.0 0 0 930.47 723.58
  L 847.05 878.81
  A 0.34 0.34 0.0 0 0 847.31 879.31
  L 961.09 893.40
  A 0.34 0.34 0.0 0 0 961.43 893.23
  L 976.75 864.76
  A 0.34 0.34 0.0 0 0 976.50 864.26
  L 903.37 855.16
  A 0.34 0.34 0.0 0 1 903.12 854.66
  L 922.73 818.44
  A 0.34 0.34 0.0 0 1 923.07 818.27
  L 985.21 825.97
  A 0.34 0.34 0.0 0 0 985.55 825.80
  L 1000.33 798.36
  A 0.34 0.34 0.0 0 0 1000.08 797.86
  L 938.30 790.23
  Z"
/>
<path fill="#6a1f38" d="
  M 530.60 704.98
  L 482.95 699.16
  A 0.42 0.42 0.0 0 1 482.63 698.55
  L 498.09 670.04
  A 0.42 0.42 0.0 0 1 498.51 669.83
  L 636.31 686.91
  A 0.42 0.42 0.0 0 1 636.63 687.53
  L 621.47 715.98
  A 0.42 0.42 0.0 0 1 621.04 716.19
  L 571.89 710.11
  A 0.42 0.42 0.0 0 0 571.46 710.32
  L 503.70 836.43
  A 0.42 0.42 0.0 0 1 503.27 836.64
  L 463.66 831.77
  A 0.42 0.42 0.0 0 1 463.34 831.15
  L 530.92 705.59
  A 0.42 0.42 0.0 0 0 530.60 704.98
  Z"
/>
<path fill="#6a1f38" d="
  M 697.19 694.88
  L 613.69 850.16
  A 0.30 0.30 0.0 0 1 613.39 850.31
  L 573.66 845.36
  A 0.30 0.30 0.0 0 1 573.44 844.92
  L 657.00 689.64
  A 0.30 0.30 0.0 0 1 657.30 689.49
  L 696.97 694.44
  A 0.30 0.30 0.0 0 1 697.19 694.88
  Z"
/>
<path fill="#6a1f38" d="
  M 841.14 765.48
  A 0.19 0.18 -19.7 0 0 840.82 765.33
  L 746.04 866.18
  A 1.31 1.30 24.8 0 1 744.93 866.58
  L 719.29 863.44
  Q 718.71 863.37 718.82 862.77
  L 738.09 748.32
  A 0.24 0.24 0.0 0 0 737.64 748.17
  Q 721.60 781.51 705.47 814.84
  C 698.42 829.41 690.48 843.55 682.80 857.78
  Q 682.23 858.84 681.05 858.69
  L 642.95 853.96
  Q 641.80 853.82 642.35 852.80
  L 725.10 698.92
  Q 725.61 697.97 726.68 698.10
  L 777.26 704.36
  A 0.56 0.56 0.0 0 1 777.74 705.02
  L 756.96 814.93
  Q 756.65 816.53 757.75 815.33
  L 850.09 714.49
  A 2.61 2.59 24.6 0 1 852.32 713.67
  L 904.13 720.13
  A 0.40 0.40 0.0 0 1 904.43 720.72
  L 821.16 875.65
  A 0.65 0.63 -71.8 0 1 820.53 875.98
  L 781.03 871.15
  A 0.51 0.51 0.0 0 1 780.65 870.40
  C 788.81 855.20 796.66 839.82 805.51 825.03
  Q 823.25 795.38 841.04 765.76
  Q 841.12 765.63 841.14 765.48
  Z"
/>
<path fill="#6a1f38" d="
  M 938.30 790.23
  L 1000.08 797.86
  A 0.34 0.34 0.0 0 1 1000.33 798.36
  L 985.55 825.80
  A 0.34 0.34 0.0 0 1 985.21 825.97
  L 923.07 818.27
  A 0.34 0.34 0.0 0 0 922.73 818.44
  L 903.12 854.66
  A 0.34 0.34 0.0 0 0 903.37 855.16
  L 976.50 864.26
  A 0.34 0.34 0.0 0 1 976.75 864.76
  L 961.43 893.23
  A 0.34 0.34 0.0 0 1 961.09 893.40
  L 847.31 879.31
  A 0.34 0.34 0.0 0 1 847.05 878.81
  L 930.47 723.58
  A 0.34 0.34 0.0 0 1 930.81 723.40
  L 1044.82 737.55
  A 0.34 0.34 0.0 0 1 1045.08 738.05
  L 1029.74 766.60
  A 0.34 0.34 0.0 0 1 1029.40 766.78
  L 955.60 757.66
  A 0.34 0.34 0.0 0 0 955.26 757.83
  L 938.05 789.73
  A 0.34 0.34 0.0 0 0 938.30 790.23
  Z"
/>
</svg>
